<mxfile host="app.diagrams.net" agent="Mozilla/5.0 (Windows NT 10.0; Win64; x64) AppleWebKit/537.36 (KHTML, like Gecko) Chrome/128.0.0.0 Safari/537.36 Edg/128.0.0.0" version="24.7.14">
  <diagram id="Ht1M8jgEwFfnCIfOTk4-" name="Page-1">
    <mxGraphModel grid="1" page="1" gridSize="10" guides="1" tooltips="1" connect="1" arrows="1" fold="1" pageScale="1" pageWidth="1169" pageHeight="827" math="0" shadow="0">
      <root>
        <mxCell id="0" />
        <mxCell id="1" parent="0" />
        <mxCell id="UEzPUAAOIrF-is8g5C7q-128" style="edgeStyle=orthogonalEdgeStyle;rounded=0;orthogonalLoop=1;jettySize=auto;html=1;startArrow=open;startFill=0;endArrow=open;endFill=0;strokeWidth=2;strokeColor=#808080;" edge="1" parent="1" source="UEzPUAAOIrF-is8g5C7q-109" target="UEzPUAAOIrF-is8g5C7q-114">
          <mxGeometry relative="1" as="geometry">
            <Array as="points">
              <mxPoint x="310" y="377" />
              <mxPoint x="310" y="377" />
            </Array>
          </mxGeometry>
        </mxCell>
        <mxCell id="UEzPUAAOIrF-is8g5C7q-129" style="edgeStyle=orthogonalEdgeStyle;rounded=0;orthogonalLoop=1;jettySize=auto;html=1;startArrow=open;startFill=0;endArrow=open;endFill=0;strokeWidth=2;strokeColor=#808080;" edge="1" parent="1" source="UEzPUAAOIrF-is8g5C7q-114" target="UEzPUAAOIrF-is8g5C7q-115">
          <mxGeometry relative="1" as="geometry">
            <Array as="points">
              <mxPoint x="511" y="392" />
              <mxPoint x="511" y="392" />
            </Array>
          </mxGeometry>
        </mxCell>
        <mxCell id="UEzPUAAOIrF-is8g5C7q-130" style="edgeStyle=orthogonalEdgeStyle;rounded=0;orthogonalLoop=1;jettySize=auto;html=1;startArrow=open;startFill=0;endArrow=open;endFill=0;strokeWidth=2;strokeColor=#808080;" edge="1" parent="1" source="UEzPUAAOIrF-is8g5C7q-115" target="ao3Jt-RsWgXVMUWjVCav-1">
          <mxGeometry relative="1" as="geometry">
            <Array as="points">
              <mxPoint x="700" y="352" />
              <mxPoint x="700" y="40" />
            </Array>
          </mxGeometry>
        </mxCell>
        <mxCell id="UEzPUAAOIrF-is8g5C7q-132" style="edgeStyle=orthogonalEdgeStyle;rounded=0;orthogonalLoop=1;jettySize=auto;html=1;startArrow=open;startFill=0;endArrow=open;endFill=0;strokeWidth=2;strokeColor=#808080;" edge="1" parent="1" source="UEzPUAAOIrF-is8g5C7q-115" target="UEzPUAAOIrF-is8g5C7q-119">
          <mxGeometry relative="1" as="geometry">
            <Array as="points">
              <mxPoint x="760" y="372" />
              <mxPoint x="760" y="280" />
            </Array>
          </mxGeometry>
        </mxCell>
        <mxCell id="UEzPUAAOIrF-is8g5C7q-134" style="edgeStyle=orthogonalEdgeStyle;rounded=0;orthogonalLoop=1;jettySize=auto;html=1;startArrow=open;startFill=0;endArrow=open;endFill=0;strokeWidth=2;strokeColor=#808080;" edge="1" parent="1" source="UEzPUAAOIrF-is8g5C7q-115" target="UEzPUAAOIrF-is8g5C7q-121">
          <mxGeometry relative="1" as="geometry">
            <Array as="points">
              <mxPoint x="741" y="392" />
              <mxPoint x="741" y="560" />
            </Array>
          </mxGeometry>
        </mxCell>
        <mxCell id="UEzPUAAOIrF-is8g5C7q-135" style="edgeStyle=orthogonalEdgeStyle;rounded=0;orthogonalLoop=1;jettySize=auto;html=1;startArrow=open;startFill=0;endArrow=open;endFill=0;strokeWidth=2;strokeColor=#808080;" edge="1" parent="1" source="UEzPUAAOIrF-is8g5C7q-115" target="UEzPUAAOIrF-is8g5C7q-122">
          <mxGeometry relative="1" as="geometry">
            <Array as="points">
              <mxPoint x="721" y="402" />
              <mxPoint x="721" y="680" />
            </Array>
          </mxGeometry>
        </mxCell>
        <mxCell id="UEzPUAAOIrF-is8g5C7q-136" style="edgeStyle=orthogonalEdgeStyle;rounded=0;orthogonalLoop=1;jettySize=auto;html=1;startArrow=open;startFill=0;endArrow=open;endFill=0;strokeWidth=2;strokeColor=#808080;" edge="1" parent="1" source="UEzPUAAOIrF-is8g5C7q-115" target="UEzPUAAOIrF-is8g5C7q-123">
          <mxGeometry relative="1" as="geometry">
            <Array as="points">
              <mxPoint x="700" y="412" />
              <mxPoint x="700" y="770" />
            </Array>
          </mxGeometry>
        </mxCell>
        <mxCell id="UEzPUAAOIrF-is8g5C7q-142" style="edgeStyle=orthogonalEdgeStyle;rounded=0;orthogonalLoop=1;jettySize=auto;html=1;startArrow=open;startFill=0;endArrow=open;endFill=0;strokeWidth=2;strokeColor=#808080;" edge="1" parent="1" source="UEzPUAAOIrF-is8g5C7q-114" target="UEzPUAAOIrF-is8g5C7q-115">
          <mxGeometry relative="1" as="geometry">
            <mxPoint x="457.5" y="386.5" as="sourcePoint" />
            <mxPoint x="590.5" y="386.5" as="targetPoint" />
            <Array as="points">
              <mxPoint x="510.5" y="371.5" />
              <mxPoint x="510.5" y="371.5" />
            </Array>
          </mxGeometry>
        </mxCell>
        <mxCell id="UEzPUAAOIrF-is8g5C7q-109" value="EAZYCard.fr" style="outlineConnect=0;gradientColor=none;fontColor=#545B64;strokeColor=none;fillColor=#879196;dashed=0;verticalLabelPosition=bottom;verticalAlign=top;align=center;html=1;fontSize=12;fontStyle=0;aspect=fixed;shape=mxgraph.aws4.illustration_desktop;pointerEvents=1;labelBackgroundColor=#ffffff;" vertex="1" parent="1">
          <mxGeometry x="160" y="337.5" width="100" height="91" as="geometry" />
        </mxCell>
        <mxCell id="UEzPUAAOIrF-is8g5C7q-114" value="Amazon API&lt;br&gt;Gateway&lt;br&gt;" style="outlineConnect=0;fontColor=#232F3E;gradientColor=#945DF2;gradientDirection=north;fillColor=#5A30B5;strokeColor=#ffffff;dashed=0;verticalLabelPosition=bottom;verticalAlign=top;align=center;html=1;fontSize=12;fontStyle=0;aspect=fixed;shape=mxgraph.aws4.resourceIcon;resIcon=mxgraph.aws4.api_gateway;labelBackgroundColor=#ffffff;" vertex="1" parent="1">
          <mxGeometry x="369.5" y="337.5" width="78" height="78" as="geometry" />
        </mxCell>
        <mxCell id="UEzPUAAOIrF-is8g5C7q-115" value="Lambda&lt;br&gt;function" style="outlineConnect=0;fontColor=#232F3E;gradientColor=none;fillColor=#D05C17;strokeColor=none;dashed=0;verticalLabelPosition=bottom;verticalAlign=top;align=center;html=1;fontSize=12;fontStyle=0;aspect=fixed;pointerEvents=1;shape=mxgraph.aws4.lambda_function;labelBackgroundColor=#ffffff;" vertex="1" parent="1">
          <mxGeometry x="580.5" y="337.5" width="78" height="78" as="geometry" />
        </mxCell>
        <mxCell id="UEzPUAAOIrF-is8g5C7q-116" value="Amazon S3" style="outlineConnect=0;fontColor=#232F3E;gradientColor=#60A337;gradientDirection=north;fillColor=#277116;strokeColor=#ffffff;dashed=0;verticalLabelPosition=bottom;verticalAlign=top;align=center;html=1;fontSize=12;fontStyle=0;aspect=fixed;shape=mxgraph.aws4.resourceIcon;resIcon=mxgraph.aws4.s3;labelBackgroundColor=#ffffff;" vertex="1" parent="1">
          <mxGeometry x="800.5000000000002" y="120" width="78" height="78" as="geometry" />
        </mxCell>
        <mxCell id="UEzPUAAOIrF-is8g5C7q-119" value="Amazon&lt;br&gt;DynamoDB&lt;br&gt;" style="outlineConnect=0;fontColor=#232F3E;gradientColor=#4D72F3;gradientDirection=north;fillColor=#3334B9;strokeColor=#ffffff;dashed=0;verticalLabelPosition=bottom;verticalAlign=top;align=center;html=1;fontSize=12;fontStyle=0;aspect=fixed;shape=mxgraph.aws4.resourceIcon;resIcon=mxgraph.aws4.dynamodb;labelBackgroundColor=#ffffff;spacingTop=5;" vertex="1" parent="1">
          <mxGeometry x="800.5000000000002" y="242.5" width="78" height="78" as="geometry" />
        </mxCell>
        <mxCell id="UEzPUAAOIrF-is8g5C7q-121" value="Amazon&lt;br&gt;CloudWatch&lt;br&gt;" style="outlineConnect=0;fontColor=#232F3E;gradientColor=#F34482;gradientDirection=north;fillColor=#BC1356;strokeColor=#ffffff;dashed=0;verticalLabelPosition=bottom;verticalAlign=top;align=center;html=1;fontSize=12;fontStyle=0;aspect=fixed;shape=mxgraph.aws4.resourceIcon;resIcon=mxgraph.aws4.cloudwatch;labelBackgroundColor=#ffffff;" vertex="1" parent="1">
          <mxGeometry x="800.5000000000002" y="520" width="78" height="78" as="geometry" />
        </mxCell>
        <mxCell id="UEzPUAAOIrF-is8g5C7q-122" value="IAM Roles" style="outlineConnect=0;fontColor=#232F3E;gradientColor=none;fillColor=#C7131F;strokeColor=none;dashed=0;verticalLabelPosition=bottom;verticalAlign=top;align=center;html=1;fontSize=12;fontStyle=0;aspect=fixed;pointerEvents=1;shape=mxgraph.aws4.role;labelBackgroundColor=#ffffff;" vertex="1" parent="1">
          <mxGeometry x="800.5000000000002" y="660" width="78" height="44" as="geometry" />
        </mxCell>
        <mxCell id="UEzPUAAOIrF-is8g5C7q-123" value="Amazon&lt;br&gt;CloudWatch Logs&lt;br&gt;" style="outlineConnect=0;fontColor=#232F3E;gradientColor=none;gradientDirection=north;fillColor=#F34482;strokeColor=none;dashed=0;verticalLabelPosition=bottom;verticalAlign=top;align=center;html=1;fontSize=12;fontStyle=0;aspect=fixed;shape=mxgraph.aws4.cloudwatch;labelBackgroundColor=#ffffff;" vertex="1" parent="1">
          <mxGeometry x="800.5000000000002" y="740" width="78" height="78" as="geometry" />
        </mxCell>
        <mxCell id="ao3Jt-RsWgXVMUWjVCav-1" value="" style="sketch=0;points=[[0,0,0],[0.25,0,0],[0.5,0,0],[0.75,0,0],[1,0,0],[0,1,0],[0.25,1,0],[0.5,1,0],[0.75,1,0],[1,1,0],[0,0.25,0],[0,0.5,0],[0,0.75,0],[1,0.25,0],[1,0.5,0],[1,0.75,0]];outlineConnect=0;fontColor=#232F3E;fillColor=#E7157B;strokeColor=#ffffff;dashed=0;verticalLabelPosition=bottom;verticalAlign=top;align=center;html=1;fontSize=12;fontStyle=0;aspect=fixed;shape=mxgraph.aws4.resourceIcon;resIcon=mxgraph.aws4.eventbridge;" vertex="1" parent="1">
          <mxGeometry x="800.5" y="-8" width="78" height="78" as="geometry" />
        </mxCell>
        <mxCell id="ao3Jt-RsWgXVMUWjVCav-3" style="edgeStyle=orthogonalEdgeStyle;rounded=0;orthogonalLoop=1;jettySize=auto;html=1;startArrow=open;startFill=0;endArrow=open;endFill=0;strokeWidth=2;strokeColor=#808080;" edge="1" parent="1" source="UEzPUAAOIrF-is8g5C7q-115" target="UEzPUAAOIrF-is8g5C7q-116">
          <mxGeometry relative="1" as="geometry">
            <Array as="points">
              <mxPoint x="710" y="362" />
              <mxPoint x="710" y="169" />
            </Array>
            <mxPoint x="668" y="362" as="sourcePoint" />
            <mxPoint x="780" y="170" as="targetPoint" />
          </mxGeometry>
        </mxCell>
        <mxCell id="ao3Jt-RsWgXVMUWjVCav-4" value="Amazon&lt;br&gt;Event Bridge" style="text;html=1;align=center;verticalAlign=middle;resizable=0;points=[];autosize=1;strokeColor=none;fillColor=none;" vertex="1" parent="1">
          <mxGeometry x="794.5" y="70" width="90" height="40" as="geometry" />
        </mxCell>
        <mxCell id="dWHyWEHLEjxg_AOZWQAv-1" value="" style="sketch=0;points=[[0,0,0],[0.25,0,0],[0.5,0,0],[0.75,0,0],[1,0,0],[0,1,0],[0.25,1,0],[0.5,1,0],[0.75,1,0],[1,1,0],[0,0.25,0],[0,0.5,0],[0,0.75,0],[1,0.25,0],[1,0.5,0],[1,0.75,0]];outlineConnect=0;fontColor=#232F3E;gradientColor=#4D72F3;gradientDirection=north;fillColor=#3334B9;strokeColor=#ffffff;dashed=0;verticalLabelPosition=bottom;verticalAlign=top;align=center;html=1;fontSize=12;fontStyle=0;aspect=fixed;shape=mxgraph.aws4.resourceIcon;resIcon=mxgraph.aws4.simple_email_service;" vertex="1" parent="1">
          <mxGeometry x="800.5" y="390" width="78" height="78" as="geometry" />
        </mxCell>
        <mxCell id="ohA7rRz4xyhltZK9pLZ2-1" value="SES" style="text;html=1;align=center;verticalAlign=middle;resizable=0;points=[];autosize=1;strokeColor=none;fillColor=none;" vertex="1" parent="1">
          <mxGeometry x="814.5" y="480" width="50" height="30" as="geometry" />
        </mxCell>
        <mxCell id="icFk_UMeqsX4jagFmkpR-2" style="edgeStyle=orthogonalEdgeStyle;rounded=0;orthogonalLoop=1;jettySize=auto;html=1;startArrow=open;startFill=0;endArrow=open;endFill=0;strokeWidth=2;strokeColor=#808080;" edge="1" parent="1">
          <mxGeometry relative="1" as="geometry">
            <Array as="points">
              <mxPoint x="760" y="380" />
              <mxPoint x="760" y="430" />
            </Array>
            <mxPoint x="658.5" y="380" as="sourcePoint" />
            <mxPoint x="800" y="430" as="targetPoint" />
          </mxGeometry>
        </mxCell>
      </root>
    </mxGraphModel>
  </diagram>
</mxfile>
